ibm2403
version=1
nRows=32
nColumns=19
inDegrees=yes
endheader
time	ground_force1_vx	ground_force1_vy	ground_force1_vz	ground_force1_px	ground_force1_py	ground_force1_pz	ground_torque1_x	ground_torque1_y	ground_torque1_z	ground_force2_vx	ground_force2_vy	ground_force2_vz	ground_force2_px	ground_force2_py	ground_force2_pz	ground_torque2_x	ground_torque2_y	ground_torque2_z
0.917000	8.379517	143.499756	-11.817319	0.200269	0.000000	-0.004508	0.000000	0.888129	0.000002	-12.623288	157.030640	-13.265682	-0.162589	0.000000	-0.032678	-0.000001	-1.669423	-0.000003	
0.918000	11.736450	141.668701	-12.427670	0.198334	0.000000	-0.007165	-0.000000	1.791139	0.000002	-12.318112	153.978882	-13.570858	-0.162839	0.000000	-0.034118	0.000002	-1.607844	-0.000001	
0.919000	10.210571	141.668701	-13.038022	0.200057	0.000000	-0.007165	-0.000000	1.275733	0.000004	-12.012937	150.927124	-13.570858	-0.163099	0.000000	-0.035617	-0.000001	-1.725846	0.000000	
0.920000	10.515747	142.279053	-13.343198	0.198127	0.000000	-0.014422	0.000000	1.613683	0.000001	-12.012937	149.706421	-12.350155	-0.162390	0.000000	-0.036723	-0.000000	-1.687822	-0.000001	
0.921000	9.295044	136.785889	-12.427670	0.201844	0.000000	-0.005671	0.000001	1.014085	0.000002	-11.402585	146.654663	-13.570858	-0.160983	0.000000	-0.040816	-0.000000	-1.537519	-0.000001	
0.922000	10.820923	136.785889	-12.427670	0.198275	0.000000	-0.008349	-0.000001	1.601959	0.000000	-10.487058	144.823608	-12.960506	-0.163651	0.000000	-0.035011	0.000002	-1.572087	-0.000001	
0.923000	8.684692	133.123779	-12.732846	0.198686	0.000000	-0.005855	0.000000	0.870096	0.000002	-10.181882	142.382202	-12.350155	-0.163885	0.000000	-0.034754	-0.000001	-1.335807	-0.000002	
0.924000	10.820923	132.513428	-11.512143	0.197989	0.000000	-0.009111	-0.000001	1.454673	0.000003	-10.181882	139.330444	-13.570858	-0.162437	0.000000	-0.032448	0.000000	-1.448128	-0.000002	
0.925000	7.769165	133.123779	-13.038022	0.197769	0.000000	-0.009981	0.000000	1.030321	0.000002	-9.571530	136.278687	-14.181210	-0.160924	0.000000	-0.036758	-0.000001	-1.382301	-0.000001	
0.926000	9.600220	132.513428	-11.817319	0.199831	0.000000	-0.009111	-0.000001	1.259291	0.000002	-9.266355	132.616577	-13.265682	-0.163066	0.000000	-0.026727	-0.000000	-1.443853	-0.000000	
0.927000	10.210571	127.630608	-11.512143	0.198868	0.000000	-0.000411	0.000000	1.437723	0.000000	-8.961179	130.175171	-12.960506	-0.161436	0.000000	-0.029104	-0.000001	-1.344558	-0.000002	
0.928000	10.210571	128.851318	-10.291440	0.201247	0.000000	-0.005135	0.000001	1.354325	0.000002	-8.350827	128.954468	-13.265682	-0.160597	0.000000	-0.043106	0.000002	-1.115695	0.000001	
0.929000	10.210571	130.072021	-10.596616	0.196074	0.000000	-0.009770	0.000001	1.450925	0.000000	-8.350827	125.902702	-13.876034	-0.161824	0.000000	-0.037848	0.000003	-0.999979	-0.000001	
0.930000	10.515747	126.409904	-10.291440	0.197409	0.000000	-0.007185	0.000002	1.260875	0.000003	-8.961179	124.681999	-13.265682	-0.161940	0.000000	-0.036261	0.000003	-1.290599	0.000000	
0.931000	10.820923	123.358147	-10.901792	0.201550	0.000000	-0.000955	0.000000	1.735568	0.000001	-8.045651	121.630241	-13.265682	-0.163243	0.000000	-0.032152	0.000001	-1.007928	-0.000001	
0.932000	9.905396	123.968498	-13.648374	0.196373	0.000000	-0.000453	0.000002	1.447044	-0.000001	-6.824948	119.799187	-12.655331	-0.162426	0.000000	-0.041814	0.000001	-0.993334	-0.000000	
0.933000	12.651978	122.747795	-9.375913	0.199818	0.000000	-0.007429	0.000002	1.646729	-0.000001	-8.350827	119.188835	-13.876034	-0.157369	0.000000	-0.036396	0.000001	-1.041847	-0.000000	
0.934000	11.126099	120.306389	-10.901792	0.197784	0.000000	-0.002019	0.000001	1.560007	0.000001	-8.045651	111.864616	-15.096737	-0.160034	0.000000	-0.033868	0.000002	-1.061482	-0.000000	
0.935000	10.820923	123.358147	-9.070737	0.196602	0.000000	-0.008377	0.000001	1.149775	-0.000000	-7.130124	114.306023	-13.876034	-0.159820	0.000000	-0.034213	0.000001	-1.257916	-0.000000	
0.936000	11.126099	120.306389	-9.681088	0.195755	0.000000	-0.002019	0.000001	1.665136	0.000000	-7.740475	109.423210	-12.350155	-0.163604	0.000000	-0.023468	0.000002	-1.290929	-0.000001	
0.937000	9.295044	122.137444	-8.155210	0.195069	0.000000	-0.006471	-0.000001	1.004553	0.000001	-7.130124	108.812859	-13.570858	-0.160315	0.000000	-0.034257	0.000001	-1.169777	-0.000002	
0.938000	10.820923	123.968498	-5.408628	0.195388	0.000000	-0.010792	0.000001	1.129513	0.000001	-7.130124	106.371452	-12.960506	-0.163995	0.000000	-0.033896	0.000003	-1.122193	-0.000001	
0.939000	10.820923	120.306389	-6.629331	0.196770	0.000000	-0.005063	-0.000001	1.164518	0.000003	-6.519772	103.930046	-12.350155	-0.160800	0.000000	-0.031756	0.000003	-0.986765	-0.000000	
0.940000	11.431274	116.033928	-4.798276	0.194284	0.000000	0.002078	0.000001	1.450056	0.000002	-7.435299	102.709343	-12.350155	-0.153797	0.000000	-0.033321	0.000003	-0.951118	-0.000001	
0.941000	11.736450	120.916740	-6.934507	0.199562	0.000000	-0.007556	0.000001	1.438001	0.000000	-6.214596	99.657585	-13.570858	-0.160038	0.000000	-0.030055	0.000001	-0.765730	-0.000001	
0.942000	11.736450	119.085686	-5.103452	0.198274	0.000000	-0.001538	0.000002	0.953552	0.000001	-8.045651	97.216179	-11.129452	-0.159034	0.000000	-0.018253	0.000003	-1.410844	-0.000000	
0.943000	12.651978	117.864983	-3.577573	0.196703	0.000000	-0.002600	-0.000000	1.499380	0.000001	-7.130124	96.605827	-12.044979	-0.157828	0.000000	-0.045535	0.000001	-1.043661	0.000000	
0.944000	13.262329	122.747795	-3.882749	0.199818	0.000000	-0.010412	0.000001	1.358879	-0.000001	-5.604245	95.385124	-12.960506	-0.161767	0.000000	-0.053157	0.000000	-0.823478	-0.000001	
0.945000	9.905396	117.864983	-3.882749	0.195667	0.000000	0.002061	0.000002	1.016346	0.000001	-5.299069	93.554070	-13.265682	-0.160693	0.000000	-0.028753	0.000002	-0.805765	-0.000001	
0.946000	12.957153	127.630608	-2.662046	0.196955	0.000000	-0.017627	0.000000	1.047858	0.000001	-5.604245	89.281609	-11.129452	-0.158470	0.000000	-0.020559	0.000002	-0.856370	0.000000	
0.947000	13.872681	119.696037	-2.967222	0.197008	0.000000	0.000515	0.000001	1.754735	0.000001	-5.604245	87.450554	-11.129452	-0.160043	0.000000	-0.035646	0.000002	-1.063985	-0.000001	
0.948000	12.957153	123.358147	-0.830991	0.199571	0.000000	-0.008377	0.000001	1.175466	0.000002	-6.519772	86.840202	-11.739803	-0.158708	0.000000	-0.038708	0.000001	-0.818738	-0.000001	
